<svg xmlns="http://www.w3.org/2000/svg" width="1600" height="940" viewBox="0 0 1600 940">
<defs>
<filter id="shadow" x="-20%" y="-20%" width="140%" height="140%">
<feDropShadow dx="0" dy="8" stdDeviation="8" flood-color="#0f172a" flood-opacity="0.10"/>
</filter>
</defs>
<rect width="100%" height="100%" fill="#ffffff"/>
<text x="70.0" y="70.0" font-family="Inter,Segoe UI,Arial,sans-serif" font-size="38" font-weight="900" fill="#0f172a" text-anchor="start">PUT p99 Latency Heatmap</text>
<text x="70.0" y="108.0" font-family="Inter,Segoe UI,Arial,sans-serif" font-size="18" font-weight="500" fill="#475569" text-anchor="start">Darker cells are worse; this chart shows where background migration hurts foreground writes.</text>
<text x="455.0" y="179.0" font-family="Inter,Segoe UI,Arial,sans-serif" font-size="18" font-weight="900" fill="#334155" text-anchor="middle">Baseline</text>
<text x="745.0" y="179.0" font-family="Inter,Segoe UI,Arial,sans-serif" font-size="18" font-weight="900" fill="#334155" text-anchor="middle">Age-based</text>
<text x="1035.0" y="179.0" font-family="Inter,Segoe UI,Arial,sans-serif" font-size="18" font-weight="900" fill="#334155" text-anchor="middle">Throttled</text>
<text x="1325.0" y="179.0" font-family="Inter,Segoe UI,Arial,sans-serif" font-size="18" font-weight="900" fill="#334155" text-anchor="middle">Pressure-</text>
<text x="1325.0" y="203.0" font-family="Inter,Segoe UI,Arial,sans-serif" font-size="18" font-weight="900" fill="#334155" text-anchor="middle">aware</text>
<text x="272.0" y="307.0" font-family="Inter,Segoe UI,Arial,sans-serif" font-size="20" font-weight="900" fill="#0f172a" text-anchor="end">No pressure</text>
<rect x="310.0" y="225.0" width="276.0" height="136.0" rx="18.0" fill="#f1f4ad" stroke="#ffffff" stroke-width="2.0"/>
<text x="448.0" y="292.0" font-family="Inter,Segoe UI,Arial,sans-serif" font-size="28" font-weight="900" fill="#0f172a" text-anchor="middle">1126 ms</text>
<rect x="600.0" y="225.0" width="276.0" height="136.0" rx="18.0" fill="#f2f4aa" stroke="#ffffff" stroke-width="2.0"/>
<text x="738.0" y="292.0" font-family="Inter,Segoe UI,Arial,sans-serif" font-size="28" font-weight="900" fill="#0f172a" text-anchor="middle">1177 ms</text>
<rect x="890.0" y="225.0" width="276.0" height="136.0" rx="18.0" fill="#f8f299" stroke="#ffffff" stroke-width="2.0"/>
<text x="1028.0" y="292.0" font-family="Inter,Segoe UI,Arial,sans-serif" font-size="28" font-weight="900" fill="#0f172a" text-anchor="middle">1505 ms</text>
<rect x="1180.0" y="225.0" width="276.0" height="136.0" rx="18.0" fill="#eff5b3" stroke="#14532d" stroke-width="4.0"/>
<text x="1318.0" y="292.0" font-family="Inter,Segoe UI,Arial,sans-serif" font-size="28" font-weight="900" fill="#0f172a" text-anchor="middle">1006 ms</text>
<text x="272.0" y="457.0" font-family="Inter,Segoe UI,Arial,sans-serif" font-size="20" font-weight="900" fill="#0f172a" text-anchor="end">CPU pressure</text>
<rect x="310.0" y="375.0" width="276.0" height="136.0" rx="18.0" fill="#f0f5b1" stroke="#ffffff" stroke-width="2.0"/>
<text x="448.0" y="442.0" font-family="Inter,Segoe UI,Arial,sans-serif" font-size="28" font-weight="900" fill="#0f172a" text-anchor="middle">1050 ms</text>
<rect x="600.0" y="375.0" width="276.0" height="136.0" rx="18.0" fill="#f6f3a0" stroke="#ffffff" stroke-width="2.0"/>
<text x="738.0" y="442.0" font-family="Inter,Segoe UI,Arial,sans-serif" font-size="28" font-weight="900" fill="#0f172a" text-anchor="middle">1375 ms</text>
<rect x="890.0" y="375.0" width="276.0" height="136.0" rx="18.0" fill="#f3f4a9" stroke="#ffffff" stroke-width="2.0"/>
<text x="1028.0" y="442.0" font-family="Inter,Segoe UI,Arial,sans-serif" font-size="28" font-weight="900" fill="#0f172a" text-anchor="middle">1194 ms</text>
<rect x="1180.0" y="375.0" width="276.0" height="136.0" rx="18.0" fill="#f0f5b0" stroke="#14532d" stroke-width="4.0"/>
<text x="1318.0" y="442.0" font-family="Inter,Segoe UI,Arial,sans-serif" font-size="28" font-weight="900" fill="#0f172a" text-anchor="middle">1067 ms</text>
<rect x="1238.0" y="469.0" width="160.0" height="32.0" rx="16.0" fill="#dcfce7" stroke="none" stroke-width="1.0"/>
<text x="1318.0" y="491.0" font-family="Inter,Segoe UI,Arial,sans-serif" font-size="14" font-weight="900" fill="#15803d" text-anchor="middle">22.4% lower vs A</text>
<text x="272.0" y="607.0" font-family="Inter,Segoe UI,Arial,sans-serif" font-size="20" font-weight="900" fill="#0f172a" text-anchor="end">I/O pressure</text>
<rect x="310.0" y="525.0" width="276.0" height="136.0" rx="18.0" fill="#f0f5af" stroke="#ffffff" stroke-width="2.0"/>
<text x="448.0" y="592.0" font-family="Inter,Segoe UI,Arial,sans-serif" font-size="28" font-weight="900" fill="#0f172a" text-anchor="middle">1085 ms</text>
<rect x="600.0" y="525.0" width="276.0" height="136.0" rx="18.0" fill="#e4402b" stroke="#ffffff" stroke-width="2.0"/>
<text x="738.0" y="592.0" font-family="Inter,Segoe UI,Arial,sans-serif" font-size="28" font-weight="900" fill="#0f172a" text-anchor="middle">3757 ms</text>
<rect x="890.0" y="525.0" width="276.0" height="136.0" rx="18.0" fill="#fb9841" stroke="#ffffff" stroke-width="2.0"/>
<text x="1028.0" y="592.0" font-family="Inter,Segoe UI,Arial,sans-serif" font-size="28" font-weight="900" fill="#0f172a" text-anchor="middle">2926 ms</text>
<rect x="1180.0" y="525.0" width="276.0" height="136.0" rx="18.0" fill="#f9f297" stroke="#14532d" stroke-width="4.0"/>
<text x="1318.0" y="592.0" font-family="Inter,Segoe UI,Arial,sans-serif" font-size="28" font-weight="900" fill="#0f172a" text-anchor="middle">1552 ms</text>
<rect x="1238.0" y="619.0" width="160.0" height="32.0" rx="16.0" fill="#dcfce7" stroke="none" stroke-width="1.0"/>
<text x="1318.0" y="641.0" font-family="Inter,Segoe UI,Arial,sans-serif" font-size="14" font-weight="900" fill="#15803d" text-anchor="middle">58.7% lower vs A</text>
<text x="310.0" y="708.0" font-family="Inter,Segoe UI,Arial,sans-serif" font-size="16" font-weight="800" fill="#334155" text-anchor="start">Scale: lower PUT p99 is better</text>
<rect x="310.0" y="730.0" width="5.0" height="24.0" rx="0.0" fill="#dcfce7" stroke="none" stroke-width="1.0"/>
<rect x="315.0" y="730.0" width="5.0" height="24.0" rx="0.0" fill="#ddfce5" stroke="none" stroke-width="1.0"/>
<rect x="320.0" y="730.0" width="5.0" height="24.0" rx="0.0" fill="#ddfce4" stroke="none" stroke-width="1.0"/>
<rect x="325.0" y="730.0" width="5.0" height="24.0" rx="0.0" fill="#defbe2" stroke="none" stroke-width="1.0"/>
<rect x="330.0" y="730.0" width="5.0" height="24.0" rx="0.0" fill="#dffbe0" stroke="none" stroke-width="1.0"/>
<rect x="335.0" y="730.0" width="5.0" height="24.0" rx="0.0" fill="#dffbde" stroke="none" stroke-width="1.0"/>
<rect x="340.0" y="730.0" width="5.0" height="24.0" rx="0.0" fill="#e0fbdd" stroke="none" stroke-width="1.0"/>
<rect x="345.0" y="730.0" width="5.0" height="24.0" rx="0.0" fill="#e0fadb" stroke="none" stroke-width="1.0"/>
<rect x="350.0" y="730.0" width="5.0" height="24.0" rx="0.0" fill="#e1fad9" stroke="none" stroke-width="1.0"/>
<rect x="355.0" y="730.0" width="5.0" height="24.0" rx="0.0" fill="#e2fad7" stroke="none" stroke-width="1.0"/>
<rect x="360.0" y="730.0" width="5.0" height="24.0" rx="0.0" fill="#e2fad6" stroke="none" stroke-width="1.0"/>
<rect x="365.0" y="730.0" width="5.0" height="24.0" rx="0.0" fill="#e3fad4" stroke="none" stroke-width="1.0"/>
<rect x="370.0" y="730.0" width="5.0" height="24.0" rx="0.0" fill="#e4f9d2" stroke="none" stroke-width="1.0"/>
<rect x="375.0" y="730.0" width="5.0" height="24.0" rx="0.0" fill="#e4f9d0" stroke="none" stroke-width="1.0"/>
<rect x="380.0" y="730.0" width="5.0" height="24.0" rx="0.0" fill="#e5f9cf" stroke="none" stroke-width="1.0"/>
<rect x="385.0" y="730.0" width="5.0" height="24.0" rx="0.0" fill="#e6f9cd" stroke="none" stroke-width="1.0"/>
<rect x="390.0" y="730.0" width="5.0" height="24.0" rx="0.0" fill="#e6f8cb" stroke="none" stroke-width="1.0"/>
<rect x="395.0" y="730.0" width="5.0" height="24.0" rx="0.0" fill="#e7f8c9" stroke="none" stroke-width="1.0"/>
<rect x="400.0" y="730.0" width="5.0" height="24.0" rx="0.0" fill="#e7f8c8" stroke="none" stroke-width="1.0"/>
<rect x="405.0" y="730.0" width="5.0" height="24.0" rx="0.0" fill="#e8f8c6" stroke="none" stroke-width="1.0"/>
<rect x="410.0" y="730.0" width="5.0" height="24.0" rx="0.0" fill="#e9f8c4" stroke="none" stroke-width="1.0"/>
<rect x="415.0" y="730.0" width="5.0" height="24.0" rx="0.0" fill="#e9f7c3" stroke="none" stroke-width="1.0"/>
<rect x="420.0" y="730.0" width="5.0" height="24.0" rx="0.0" fill="#eaf7c1" stroke="none" stroke-width="1.0"/>
<rect x="425.0" y="730.0" width="5.0" height="24.0" rx="0.0" fill="#ebf7bf" stroke="none" stroke-width="1.0"/>
<rect x="430.0" y="730.0" width="5.0" height="24.0" rx="0.0" fill="#ebf7bd" stroke="none" stroke-width="1.0"/>
<rect x="435.0" y="730.0" width="5.0" height="24.0" rx="0.0" fill="#ecf6bc" stroke="none" stroke-width="1.0"/>
<rect x="440.0" y="730.0" width="5.0" height="24.0" rx="0.0" fill="#edf6ba" stroke="none" stroke-width="1.0"/>
<rect x="445.0" y="730.0" width="5.0" height="24.0" rx="0.0" fill="#edf6b8" stroke="none" stroke-width="1.0"/>
<rect x="450.0" y="730.0" width="5.0" height="24.0" rx="0.0" fill="#eef6b6" stroke="none" stroke-width="1.0"/>
<rect x="455.0" y="730.0" width="5.0" height="24.0" rx="0.0" fill="#eef6b5" stroke="none" stroke-width="1.0"/>
<rect x="460.0" y="730.0" width="5.0" height="24.0" rx="0.0" fill="#eff5b3" stroke="none" stroke-width="1.0"/>
<rect x="465.0" y="730.0" width="5.0" height="24.0" rx="0.0" fill="#f0f5b1" stroke="none" stroke-width="1.0"/>
<rect x="470.0" y="730.0" width="5.0" height="24.0" rx="0.0" fill="#f0f5af" stroke="none" stroke-width="1.0"/>
<rect x="475.0" y="730.0" width="5.0" height="24.0" rx="0.0" fill="#f1f5ae" stroke="none" stroke-width="1.0"/>
<rect x="480.0" y="730.0" width="5.0" height="24.0" rx="0.0" fill="#f2f4ac" stroke="none" stroke-width="1.0"/>
<rect x="485.0" y="730.0" width="5.0" height="24.0" rx="0.0" fill="#f2f4aa" stroke="none" stroke-width="1.0"/>
<rect x="490.0" y="730.0" width="5.0" height="24.0" rx="0.0" fill="#f3f4a8" stroke="none" stroke-width="1.0"/>
<rect x="495.0" y="730.0" width="5.0" height="24.0" rx="0.0" fill="#f3f4a7" stroke="none" stroke-width="1.0"/>
<rect x="500.0" y="730.0" width="5.0" height="24.0" rx="0.0" fill="#f4f3a5" stroke="none" stroke-width="1.0"/>
<rect x="505.0" y="730.0" width="5.0" height="24.0" rx="0.0" fill="#f5f3a3" stroke="none" stroke-width="1.0"/>
<rect x="510.0" y="730.0" width="5.0" height="24.0" rx="0.0" fill="#f5f3a2" stroke="none" stroke-width="1.0"/>
<rect x="515.0" y="730.0" width="5.0" height="24.0" rx="0.0" fill="#f6f3a0" stroke="none" stroke-width="1.0"/>
<rect x="520.0" y="730.0" width="5.0" height="24.0" rx="0.0" fill="#f7f39e" stroke="none" stroke-width="1.0"/>
<rect x="525.0" y="730.0" width="5.0" height="24.0" rx="0.0" fill="#f7f29c" stroke="none" stroke-width="1.0"/>
<rect x="530.0" y="730.0" width="5.0" height="24.0" rx="0.0" fill="#f8f29b" stroke="none" stroke-width="1.0"/>
<rect x="535.0" y="730.0" width="5.0" height="24.0" rx="0.0" fill="#f9f299" stroke="none" stroke-width="1.0"/>
<rect x="540.0" y="730.0" width="5.0" height="24.0" rx="0.0" fill="#f9f297" stroke="none" stroke-width="1.0"/>
<rect x="545.0" y="730.0" width="5.0" height="24.0" rx="0.0" fill="#faf195" stroke="none" stroke-width="1.0"/>
<rect x="550.0" y="730.0" width="5.0" height="24.0" rx="0.0" fill="#faf194" stroke="none" stroke-width="1.0"/>
<rect x="555.0" y="730.0" width="5.0" height="24.0" rx="0.0" fill="#fbf192" stroke="none" stroke-width="1.0"/>
<rect x="560.0" y="730.0" width="5.0" height="24.0" rx="0.0" fill="#fcf190" stroke="none" stroke-width="1.0"/>
<rect x="565.0" y="730.0" width="5.0" height="24.0" rx="0.0" fill="#fcf18e" stroke="none" stroke-width="1.0"/>
<rect x="570.0" y="730.0" width="5.0" height="24.0" rx="0.0" fill="#fdf08d" stroke="none" stroke-width="1.0"/>
<rect x="575.0" y="730.0" width="5.0" height="24.0" rx="0.0" fill="#fef08b" stroke="none" stroke-width="1.0"/>
<rect x="580.0" y="730.0" width="5.0" height="24.0" rx="0.0" fill="#feef89" stroke="none" stroke-width="1.0"/>
<rect x="585.0" y="730.0" width="5.0" height="24.0" rx="0.0" fill="#feec87" stroke="none" stroke-width="1.0"/>
<rect x="590.0" y="730.0" width="5.0" height="24.0" rx="0.0" fill="#feea85" stroke="none" stroke-width="1.0"/>
<rect x="595.0" y="730.0" width="5.0" height="24.0" rx="0.0" fill="#fee782" stroke="none" stroke-width="1.0"/>
<rect x="600.0" y="730.0" width="5.0" height="24.0" rx="0.0" fill="#fee480" stroke="none" stroke-width="1.0"/>
<rect x="605.0" y="730.0" width="5.0" height="24.0" rx="0.0" fill="#fee27e" stroke="none" stroke-width="1.0"/>
<rect x="610.0" y="730.0" width="5.0" height="24.0" rx="0.0" fill="#fddf7c" stroke="none" stroke-width="1.0"/>
<rect x="615.0" y="730.0" width="5.0" height="24.0" rx="0.0" fill="#fddc7a" stroke="none" stroke-width="1.0"/>
<rect x="620.0" y="730.0" width="5.0" height="24.0" rx="0.0" fill="#fdda78" stroke="none" stroke-width="1.0"/>
<rect x="625.0" y="730.0" width="5.0" height="24.0" rx="0.0" fill="#fdd775" stroke="none" stroke-width="1.0"/>
<rect x="630.0" y="730.0" width="5.0" height="24.0" rx="0.0" fill="#fdd473" stroke="none" stroke-width="1.0"/>
<rect x="635.0" y="730.0" width="5.0" height="24.0" rx="0.0" fill="#fdd271" stroke="none" stroke-width="1.0"/>
<rect x="640.0" y="730.0" width="5.0" height="24.0" rx="0.0" fill="#fdcf6f" stroke="none" stroke-width="1.0"/>
<rect x="645.0" y="730.0" width="5.0" height="24.0" rx="0.0" fill="#fdcd6d" stroke="none" stroke-width="1.0"/>
<rect x="650.0" y="730.0" width="5.0" height="24.0" rx="0.0" fill="#fdca6a" stroke="none" stroke-width="1.0"/>
<rect x="655.0" y="730.0" width="5.0" height="24.0" rx="0.0" fill="#fdc768" stroke="none" stroke-width="1.0"/>
<rect x="660.0" y="730.0" width="5.0" height="24.0" rx="0.0" fill="#fdc566" stroke="none" stroke-width="1.0"/>
<rect x="665.0" y="730.0" width="5.0" height="24.0" rx="0.0" fill="#fdc264" stroke="none" stroke-width="1.0"/>
<rect x="670.0" y="730.0" width="5.0" height="24.0" rx="0.0" fill="#fcbf62" stroke="none" stroke-width="1.0"/>
<rect x="675.0" y="730.0" width="5.0" height="24.0" rx="0.0" fill="#fcbd60" stroke="none" stroke-width="1.0"/>
<rect x="680.0" y="730.0" width="5.0" height="24.0" rx="0.0" fill="#fcba5d" stroke="none" stroke-width="1.0"/>
<rect x="685.0" y="730.0" width="5.0" height="24.0" rx="0.0" fill="#fcb85b" stroke="none" stroke-width="1.0"/>
<rect x="690.0" y="730.0" width="5.0" height="24.0" rx="0.0" fill="#fcb559" stroke="none" stroke-width="1.0"/>
<rect x="695.0" y="730.0" width="5.0" height="24.0" rx="0.0" fill="#fcb257" stroke="none" stroke-width="1.0"/>
<rect x="700.0" y="730.0" width="5.0" height="24.0" rx="0.0" fill="#fcb055" stroke="none" stroke-width="1.0"/>
<rect x="705.0" y="730.0" width="5.0" height="24.0" rx="0.0" fill="#fcad52" stroke="none" stroke-width="1.0"/>
<rect x="710.0" y="730.0" width="5.0" height="24.0" rx="0.0" fill="#fcaa50" stroke="none" stroke-width="1.0"/>
<rect x="715.0" y="730.0" width="5.0" height="24.0" rx="0.0" fill="#fca84e" stroke="none" stroke-width="1.0"/>
<rect x="720.0" y="730.0" width="5.0" height="24.0" rx="0.0" fill="#fca54c" stroke="none" stroke-width="1.0"/>
<rect x="725.0" y="730.0" width="5.0" height="24.0" rx="0.0" fill="#fca24a" stroke="none" stroke-width="1.0"/>
<rect x="730.0" y="730.0" width="5.0" height="24.0" rx="0.0" fill="#fba047" stroke="none" stroke-width="1.0"/>
<rect x="735.0" y="730.0" width="5.0" height="24.0" rx="0.0" fill="#fb9d45" stroke="none" stroke-width="1.0"/>
<rect x="740.0" y="730.0" width="5.0" height="24.0" rx="0.0" fill="#fb9b43" stroke="none" stroke-width="1.0"/>
<rect x="745.0" y="730.0" width="5.0" height="24.0" rx="0.0" fill="#fb9841" stroke="none" stroke-width="1.0"/>
<rect x="750.0" y="730.0" width="5.0" height="24.0" rx="0.0" fill="#fb953f" stroke="none" stroke-width="1.0"/>
<rect x="755.0" y="730.0" width="5.0" height="24.0" rx="0.0" fill="#fb933d" stroke="none" stroke-width="1.0"/>
<rect x="760.0" y="730.0" width="5.0" height="24.0" rx="0.0" fill="#fa8f3b" stroke="none" stroke-width="1.0"/>
<rect x="765.0" y="730.0" width="5.0" height="24.0" rx="0.0" fill="#f98c3b" stroke="none" stroke-width="1.0"/>
<rect x="770.0" y="730.0" width="5.0" height="24.0" rx="0.0" fill="#f8883a" stroke="none" stroke-width="1.0"/>
<rect x="775.0" y="730.0" width="5.0" height="24.0" rx="0.0" fill="#f78439" stroke="none" stroke-width="1.0"/>
<rect x="780.0" y="730.0" width="5.0" height="24.0" rx="0.0" fill="#f68138" stroke="none" stroke-width="1.0"/>
<rect x="785.0" y="730.0" width="5.0" height="24.0" rx="0.0" fill="#f57d38" stroke="none" stroke-width="1.0"/>
<rect x="790.0" y="730.0" width="5.0" height="24.0" rx="0.0" fill="#f47937" stroke="none" stroke-width="1.0"/>
<rect x="795.0" y="730.0" width="5.0" height="24.0" rx="0.0" fill="#f37636" stroke="none" stroke-width="1.0"/>
<rect x="800.0" y="730.0" width="5.0" height="24.0" rx="0.0" fill="#f27236" stroke="none" stroke-width="1.0"/>
<rect x="805.0" y="730.0" width="5.0" height="24.0" rx="0.0" fill="#f16f35" stroke="none" stroke-width="1.0"/>
<rect x="810.0" y="730.0" width="5.0" height="24.0" rx="0.0" fill="#f06b34" stroke="none" stroke-width="1.0"/>
<rect x="815.0" y="730.0" width="5.0" height="24.0" rx="0.0" fill="#ef6733" stroke="none" stroke-width="1.0"/>
<rect x="820.0" y="730.0" width="5.0" height="24.0" rx="0.0" fill="#ee6433" stroke="none" stroke-width="1.0"/>
<rect x="825.0" y="730.0" width="5.0" height="24.0" rx="0.0" fill="#ed6032" stroke="none" stroke-width="1.0"/>
<rect x="830.0" y="730.0" width="5.0" height="24.0" rx="0.0" fill="#ec5c31" stroke="none" stroke-width="1.0"/>
<rect x="835.0" y="730.0" width="5.0" height="24.0" rx="0.0" fill="#eb5930" stroke="none" stroke-width="1.0"/>
<rect x="840.0" y="730.0" width="5.0" height="24.0" rx="0.0" fill="#ea5530" stroke="none" stroke-width="1.0"/>
<rect x="845.0" y="730.0" width="5.0" height="24.0" rx="0.0" fill="#e9522f" stroke="none" stroke-width="1.0"/>
<rect x="850.0" y="730.0" width="5.0" height="24.0" rx="0.0" fill="#e74e2e" stroke="none" stroke-width="1.0"/>
<rect x="855.0" y="730.0" width="5.0" height="24.0" rx="0.0" fill="#e64a2d" stroke="none" stroke-width="1.0"/>
<rect x="860.0" y="730.0" width="5.0" height="24.0" rx="0.0" fill="#e5472d" stroke="none" stroke-width="1.0"/>
<rect x="865.0" y="730.0" width="5.0" height="24.0" rx="0.0" fill="#e4432c" stroke="none" stroke-width="1.0"/>
<rect x="870.0" y="730.0" width="5.0" height="24.0" rx="0.0" fill="#e33f2b" stroke="none" stroke-width="1.0"/>
<rect x="875.0" y="730.0" width="5.0" height="24.0" rx="0.0" fill="#e23c2a" stroke="none" stroke-width="1.0"/>
<rect x="880.0" y="730.0" width="5.0" height="24.0" rx="0.0" fill="#e1382a" stroke="none" stroke-width="1.0"/>
<rect x="885.0" y="730.0" width="5.0" height="24.0" rx="0.0" fill="#e03529" stroke="none" stroke-width="1.0"/>
<rect x="890.0" y="730.0" width="5.0" height="24.0" rx="0.0" fill="#df3128" stroke="none" stroke-width="1.0"/>
<rect x="895.0" y="730.0" width="5.0" height="24.0" rx="0.0" fill="#de2d27" stroke="none" stroke-width="1.0"/>
<rect x="900.0" y="730.0" width="5.0" height="24.0" rx="0.0" fill="#dd2a27" stroke="none" stroke-width="1.0"/>
<rect x="905.0" y="730.0" width="5.0" height="24.0" rx="0.0" fill="#dc2626" stroke="none" stroke-width="1.0"/>
<line x1="310.0" y1="754.0" x2="310.0" y2="764.0" stroke="#64748b" stroke-width="1"/>
<text x="310.0" y="785.0" font-family="Inter,Segoe UI,Arial,sans-serif" font-size="12" font-weight="700" fill="#64748b" text-anchor="middle">0</text>
<line x1="458.8" y1="754.0" x2="458.8" y2="764.0" stroke="#64748b" stroke-width="1"/>
<text x="458.8" y="785.0" font-family="Inter,Segoe UI,Arial,sans-serif" font-size="12" font-weight="700" fill="#64748b" text-anchor="middle">1000</text>
<line x1="607.5" y1="754.0" x2="607.5" y2="764.0" stroke="#64748b" stroke-width="1"/>
<text x="607.5" y="785.0" font-family="Inter,Segoe UI,Arial,sans-serif" font-size="12" font-weight="700" fill="#64748b" text-anchor="middle">2000</text>
<line x1="756.2" y1="754.0" x2="756.2" y2="764.0" stroke="#64748b" stroke-width="1"/>
<text x="756.2" y="785.0" font-family="Inter,Segoe UI,Arial,sans-serif" font-size="12" font-weight="700" fill="#64748b" text-anchor="middle">3000</text>
<line x1="905.0" y1="754.0" x2="905.0" y2="764.0" stroke="#64748b" stroke-width="1"/>
<text x="905.0" y="785.0" font-family="Inter,Segoe UI,Arial,sans-serif" font-size="12" font-weight="700" fill="#64748b" text-anchor="middle">4000</text>
<text x="310.0" y="845.0" font-family="Inter,Segoe UI,Arial,sans-serif" font-size="17" font-weight="700" fill="#334155" text-anchor="start">Takeaway: under I/O pressure, Age-based and Throttled policies show severe write-tail amplification.</text>
<text x="310.0" y="875.0" font-family="Inter,Segoe UI,Arial,sans-serif" font-size="17" font-weight="700" fill="#334155" text-anchor="start">Pressure-aware remains much closer to baseline while avoiding foreground errors.</text>
</svg>
